<?xml version="1.0" encoding="UTF-8"?>
<!-- Generator: Adobe Illustrator 14.0.0, SVG Export Plug-In  -->
<!DOCTYPE svg PUBLIC "-//W3C//DTD SVG 1.1//EN" "http://www.w3.org/Graphics/SVG/1.1/DTD/svg11.dtd" [
	<!ENTITY ns_flows "http://ns.adobe.com/Flows/1.0/">
]>
<svg version="1.1" xmlns="http://www.w3.org/2000/svg" xmlns:xlink="http://www.w3.org/1999/xlink" xmlns:a="http://ns.adobe.com/AdobeSVGViewerExtensions/3.0/" x="0px" y="0px" width="124px" height="22px" viewBox="0 0 124 22" enable-background="new 0 0 124 22" xml:space="preserve">
<defs>
</defs>
<polygon fill="#FFFFFF" points="59.612,4.363 59.612,0.939 46.011,0.939 46.011,21.479 59.612,21.479 59.612,18.054 49.271,18.054   49.271,12.926 59.114,12.926 59.114,9.501 49.271,9.501 49.271,4.363 59.612,4.363 "/>
<polygon fill="#FFFFFF" points="69.705,21.479 69.705,0.939 72.967,0.939 72.967,18.054 82.375,18.054 82.375,21.479 69.705,21.479   "/>
<polygon fill="#FFFFFF" points="85.031,21.479 85.031,0.939 88.292,0.939 88.292,18.054 97.7,18.054 97.7,21.479 85.031,21.479 "/>
<polygon fill="#FFFFFF" points="63.036,0.939 66.294,0.939 66.294,21.479 63.036,21.479 63.036,0.939 "/>
<path fill="#FFFFFF" d="M0,11.302C0,5.395,4.563,0.609,10.193,0.605c5.628,0.004,10.188,4.789,10.188,10.696  C20.381,17.21,15.821,22,10.193,22C4.563,22,0,17.21,0,11.302 M5.291,6.156c-1.254,1.326-2.029,3.137-2.029,5.146  c0,2.015,0.775,3.82,2.029,5.144c1.262,1.322,2.982,2.135,4.903,2.135c1.918,0,3.641-0.812,4.899-2.135  c1.256-1.323,2.029-3.129,2.029-5.144c0-2.009-0.773-3.819-2.029-5.146c-1.258-1.314-2.98-2.124-4.899-2.124  C8.272,4.032,6.553,4.842,5.291,6.156"/>
<path fill="#FFFFFF" d="M38.668,12.668c2.354-0.743,4.068-3.022,4.073-5.738c-0.005-3.306-2.557-5.99-5.709-5.99H27.2v20.539h3.262  v-8.553h4.546l4.915,8.553h3.806L38.668,12.668L38.668,12.668z M30.461,9.501V4.363h6.57c1.35,0,2.444,1.148,2.445,2.566  c-0.001,1.414-1.096,2.567-2.445,2.571H30.461L30.461,9.501z"/>
<path fill="#FFFFFF" d="M24.892,3.129c0,1.392-1.079,2.518-2.402,2.518c-1.327,0-2.399-1.126-2.399-2.518  c0-1.393,1.073-2.523,2.399-2.523C23.813,0.605,24.892,1.736,24.892,3.129"/>
<polygon fill="#FFFFFF" points="112.241,0.939 108.276,0.939 103.258,8.566 98.239,0.939 94.274,0.939 101.622,12.111   101.622,21.479 104.885,21.479 104.885,12.121 112.241,0.939 "/>
<path fill="#FFFFFF" d="M119.615,0c-2.419,0-4.388,2.057-4.388,4.609c0,2.537,1.969,4.6,4.388,4.6c2.422,0,4.385-2.062,4.385-4.6  C124,2.057,122.037,0,119.615,0 M119.615,8.477c-2.036,0-3.685-1.736-3.685-3.867c0-2.143,1.649-3.879,3.685-3.879  c2.03,0,3.685,1.736,3.685,3.879C123.299,6.74,121.645,8.477,119.615,8.477"/>
<path fill="#FFFFFF" d="M121.583,3.596c0-0.764-0.581-1.379-1.301-1.379h-2.473v4.701h0.747V4.967h1.249l0.896,1.951h0.83l-0.919-2  C121.175,4.766,121.583,4.233,121.583,3.596 M118.556,3.004h1.726c0.31,0,0.555,0.264,0.557,0.592  c-0.001,0.32-0.247,0.58-0.557,0.58h-1.726V3.004L118.556,3.004z"/>
</svg>